<?xml version="1.0" encoding="UTF-8" standalone="no"?>
<!-- Created with Inkscape (http://www.inkscape.org/) -->

<svg
   xmlns:dc="http://purl.org/dc/elements/1.1/"
   xmlns:cc="http://creativecommons.org/ns#"
   xmlns:rdf="http://www.w3.org/1999/02/22-rdf-syntax-ns#"
   xmlns:svg="http://www.w3.org/2000/svg"
   xmlns="http://www.w3.org/2000/svg"
   xmlns:sodipodi="http://sodipodi.sourceforge.net/DTD/sodipodi-0.dtd"
   xmlns:inkscape="http://www.inkscape.org/namespaces/inkscape"
   width="249.992"
   height="249.17003"
   id="svg2"
   version="1.1"
   inkscape:version="0.48.1 "
   sodipodi:docname="Caltech seal background fix.svg">
  <defs
     id="defs4">
    <clipPath
       id="clipPath3145"
       clipPathUnits="userSpaceOnUse">
      <path
         id="path3147"
         d="m 340.666,180.462 164.205,0 0,153.303 -164.205,0 0,-153.303 z"
         inkscape:connector-curvature="0" />
    </clipPath>
    <clipPath
       id="clipPath3081"
       clipPathUnits="userSpaceOnUse">
      <path
         id="path3083"
         d="m 258.874,684.337 209.126,0 0,65.413 -209.126,0 0,-65.413 z"
         inkscape:connector-curvature="0" />
    </clipPath>
    <clipPath
       id="clipPath3057"
       clipPathUnits="userSpaceOnUse">
      <path
         id="path3059"
         d="m 258.874,684.337 65.6,0 0,65.413 -65.6,0 0,-65.413 z"
         inkscape:connector-curvature="0" />
    </clipPath>
    <clipPath
       id="clipPath3039"
       clipPathUnits="userSpaceOnUse">
      <path
         id="path3041"
         d="M 0,0 612,0 612,792 0,792 0,0 z"
         inkscape:connector-curvature="0" />
    </clipPath>
    <clipPath
       id="clipPath3025"
       clipPathUnits="userSpaceOnUse">
      <path
         id="path3027"
         d="m 54,253.874 286.667,0 0,284.338 -286.667,0 0,-284.338 z"
         inkscape:connector-curvature="0" />
    </clipPath>
    <clipPath
       id="clipPath3011"
       clipPathUnits="userSpaceOnUse">
      <path
         id="path3013"
         d="m 340.667,333.765 271.333,0 0,204.447 -271.333,0 0,-204.447 z"
         inkscape:connector-curvature="0" />
    </clipPath>
    <clipPath
       id="clipPath2999"
       clipPathUnits="userSpaceOnUse">
      <path
         id="path3001"
         d="M 0,0 612,0 612,792 0,792 0,0 z"
         inkscape:connector-curvature="0" />
    </clipPath>
    <clipPath
       id="clipPath3057-9"
       clipPathUnits="userSpaceOnUse">
      <path
         inkscape:connector-curvature="0"
         id="path3059-4"
         d="m 258.874,684.337 65.6,0 0,65.413 -65.6,0 0,-65.413 z" />
    </clipPath>
  </defs>
  <sodipodi:namedview
     id="base"
     pagecolor="#ffffff"
     bordercolor="#666666"
     borderopacity="1.0"
     inkscape:pageopacity="0.0"
     inkscape:pageshadow="2"
     inkscape:zoom="1"
     inkscape:cx="199.59134"
     inkscape:cy="75.5345"
     inkscape:document-units="px"
     inkscape:current-layer="layer1"
     showgrid="false"
     fit-margin-top="0"
     fit-margin-left="0"
     fit-margin-right="0"
     fit-margin-bottom="0"
     inkscape:window-width="1024"
     inkscape:window-height="721"
     inkscape:window-x="-4"
     inkscape:window-y="-4"
     inkscape:window-maximized="1" />
  <metadata
     id="metadata7">
    <rdf:RDF>
      <cc:Work
         rdf:about="">
        <dc:format>image/svg+xml</dc:format>
        <dc:type
           rdf:resource="http://purl.org/dc/dcmitype/StillImage" />
        <dc:title></dc:title>
      </cc:Work>
    </rdf:RDF>
  </metadata>
  <g
     inkscape:label="Layer 1"
     inkscape:groupmode="layer"
     id="layer1"
     transform="translate(-602.2449,20.371419)">
    <g
       id="g4330">
      <path
         transform="matrix(3.5713143,0,0,3.5595714,-424.50796,-487.71024)"
         d="m 357.5,166.29076 c 0,19.32996 -15.67003,35 -35,35 -19.32997,0 -35,-15.67004 -35,-35 0,-19.32997 15.67003,-35 35,-35 19.32997,0 35,15.67003 35,35 z"
         sodipodi:ry="35"
         sodipodi:rx="35"
         sodipodi:cy="166.29076"
         sodipodi:cx="322.5"
         id="path4247"
         style="fill:#ffffff;fill-opacity:1;stroke:none"
         sodipodi:type="arc" />
      <g
         mask="none"
         transform="matrix(3.8108477,0,0,-3.8108477,-384.28448,2836.8113)"
         id="g3053">
        <g
           clip-path="url(#clipPath3057-9)"
           id="g3055">
          <g
             transform="translate(321.797,716.2449)"
             id="g3061">
            <path
               id="path3063"
               style="fill:#f37421;fill-opacity:1;fill-rule:nonzero;stroke:none"
               d="m 0,0 -3.845,-0.164 c 0.144,0.493 0.361,0.716 0.738,1.034 L -0.226,3.348 -2.878,3.235 C -3.261,3.218 -3.536,3.213 -3.733,2.841 L -3.754,2.84 -3.806,4.053 -3.785,4.054 C -3.558,3.7 -3.283,3.711 -2.899,3.728 l 2.735,0.117 c 0.383,0.016 0.657,0.028 0.848,0.393 l 0.021,10e-4 0.042,-1.001 -0.007,0 C 0.659,3.207 0.626,3.178 0.574,3.128 L 0.44,3.026 -2.618,0.382 -0.021,0.494 c 0.384,0.016 0.658,0.02 0.848,0.393 l 0.021,0 0.051,-1.205 -0.02,-0.002 C 0.658,0.028 0.384,0.016 0,0 m 0.558,-4.252 c -0.219,-1.424 -1.461,-2.256 -2.681,-2.064 -1.382,0.218 -2.204,1.521 -1.991,2.87 0.211,1.342 1.351,2.322 2.741,2.102 1.287,-0.202 2.188,-1.49 1.931,-2.908 m -1.369,-5.031 -0.019,0.006 c -0.008,0.374 -0.504,0.494 -0.796,0.596 l -2.825,0.982 -0.364,-0.862 c -0.179,-0.431 -0.163,-0.866 -0.003,-1.284 l -0.007,-0.02 -0.745,0.637 0.925,2.663 0.02,-0.007 c 0.001,-0.371 0.494,-0.499 0.786,-0.6 l 2.443,-0.848 c 0.298,-0.103 0.757,-0.307 0.995,-0.019 l 0.02,-0.007 -0.43,-1.237 z m -2.221,-5.243 c -0.701,-1.259 -2.155,-1.606 -3.231,-1 -1.22,0.686 -1.538,2.194 -0.868,3.384 0.666,1.183 2.076,1.705 3.302,1.016 1.136,-0.638 1.533,-2.16 0.797,-3.4 m -3.873,-5.405 c -0.236,-0.277 -0.5,-0.521 -0.789,-0.742 l -0.599,0.512 0.013,0.016 c 0.423,0.008 0.835,0.342 1.107,0.659 0.696,0.814 0.695,1.889 -0.144,2.608 -0.839,0.718 -2.045,0.595 -2.75,-0.229 -0.206,-0.239 -0.388,-0.517 -0.522,-0.809 l 0.751,-0.642 c 0.24,-0.206 0.5,-0.419 0.794,-0.265 l 0.016,-0.014 -0.683,-0.796 -0.015,0.013 c -0.041,0.08 -0.124,0.151 -0.202,0.217 l -1.199,1.027 c -0.078,0.067 -0.157,0.143 -0.257,0.175 0.279,0.484 0.549,0.957 0.91,1.379 1.142,1.334 2.546,1.496 3.593,0.6 1.12,-0.96 1.056,-2.448 -0.024,-3.709 m -2.199,-2.117 c -0.168,-0.141 -0.357,-0.236 -0.518,-0.184 l -1.991,0.669 0.167,-1.525 c 0.021,-0.207 0.112,-0.56 0.526,-0.456 l 0.013,-0.016 -0.921,-0.771 -0.336,3.03 -0.697,0.832 c -0.264,0.314 -0.396,0.472 -0.828,0.442 l -0.013,0.016 1.026,0.86 0.013,-0.017 c -0.147,-0.347 0.176,-0.659 0.382,-0.905 l 0.653,-0.778 2.05,-0.673 c 0.335,-0.112 0.586,-0.198 0.953,-0.123 l -0.479,-0.401 z m -5.182,43.882 c 0.349,-0.125 0.638,0.294 0.834,0.533 l 1.635,2.003 c 0.2,0.245 0.548,0.606 0.36,0.929 l 0.013,0.015 1.7,-1.388 c 0.091,-0.074 0.172,-0.158 0.271,-0.177 l 0.016,-0.014 -0.503,-0.616 -0.016,0.013 c -0.013,0.321 -0.213,0.52 -0.458,0.719 -0.186,0.152 -0.375,0.299 -0.572,0.406 l -0.807,-0.988 0.637,-0.521 c 0.081,-0.065 0.165,-0.135 0.256,-0.155 l 0.015,-0.013 -0.46,-0.563 -0.016,0.013 c 0.045,0.229 -0.187,0.401 -0.351,0.535 l -0.393,0.321 -0.786,-0.962 c -0.195,-0.239 -0.554,-0.592 -0.371,-0.91 l -0.013,-0.016 -1.004,0.82 0.013,0.016 z m -2.7,1.581 c -1.177,0.677 -1.686,2.092 -0.986,3.312 0.649,1.13 2.174,1.512 3.406,0.766 1.253,-0.712 1.587,-2.169 0.972,-3.24 -0.697,-1.214 -2.208,-1.517 -3.392,-0.838 m 9.411,-1.467 0.013,-0.015 c 0.028,-0.086 0.086,-0.153 0.134,-0.23 l 0.111,-0.13 1.664,-1.943 c 0.076,-0.089 0.153,-0.168 0.243,-0.209 l 0.012,-0.015 -0.762,-0.365 -0.014,0.016 c 0.125,0.224 -0.027,0.455 -0.175,0.626 l -0.402,0.469 -2.375,-2.035 c -0.298,-0.254 -0.505,-0.423 -0.43,-0.837 l -0.016,-0.013 -0.883,1.031 0.015,0.013 c 0.322,-0.176 0.676,0.182 0.911,0.382 l 2.323,1.99 -0.393,0.459 c -0.191,0.225 -0.449,0.41 -0.739,0.442 l -0.013,0.015 0.776,0.349 z m 2.685,-3.367 0.017,0.011 1.189,-1.845 c 0.063,-0.098 0.114,-0.204 0.203,-0.253 l 0.011,-0.017 -0.675,-0.435 -0.011,0.017 c 0.093,0.313 -0.036,0.564 -0.207,0.829 -0.13,0.203 -0.266,0.4 -0.42,0.563 l -1.072,-0.691 0.442,-0.686 c 0.059,-0.092 0.119,-0.185 0.198,-0.231 l 0.011,-0.018 -0.611,-0.394 -0.012,0.017 c 0.108,0.2 -0.054,0.439 -0.169,0.617 l -0.274,0.428 -1.367,-0.881 0.402,-0.777 c 0.211,-0.403 0.588,-0.723 1.027,-0.847 l 0.012,-0.018 -0.922,-0.227 -1.55,2.405 0.017,0.012 c 0.294,-0.228 0.698,0.081 0.958,0.249 l 2.174,1.4 c 0.265,0.171 0.709,0.407 0.629,0.772 m 3.384,-5.833 c 0.17,-0.382 0.273,-0.802 0.349,-1.21 l -0.721,-0.32 c 0.067,0.442 0.027,0.904 -0.157,1.318 -0.383,0.866 -1.284,1.187 -2.193,0.784 -0.922,-0.409 -1.465,-1.4 -1.037,-2.367 0.209,-0.47 0.586,-0.865 0.988,-1.16 L -4.269,9.774 -5.138,9.772 c -0.269,0.233 -0.464,0.537 -0.608,0.863 -0.657,1.48 -0.235,2.762 1.107,3.358 1.298,0.575 2.563,0.041 3.133,-1.245 m 0.931,-2.655 0.02,0.005 0.305,-1.267 -0.02,-0.005 c -0.206,0.303 -0.684,0.146 -0.991,0.072 l -0.827,-0.199 0.581,-2.408 0.827,0.2 c 0.307,0.073 0.805,0.144 0.849,0.514 L 0.189,7.011 0.497,5.737 0.477,5.732 C 0.268,6.041 -0.21,5.884 -0.509,5.811 L -3.031,5.204 C -3.33,5.132 -3.827,5.055 -3.872,4.684 l -0.02,-0.005 -0.307,1.274 0.02,0.005 C -3.97,5.648 -3.494,5.812 -3.194,5.884 L -1.987,6.176 -2.568,8.583 -3.775,8.292 C -4.075,8.22 -4.571,8.142 -4.618,7.778 l -0.02,-0.004 -0.305,1.267 0.02,0.004 C -4.716,8.743 -4.239,8.9 -3.939,8.972 l 2.521,0.608 c 0.301,0.072 0.798,0.143 0.843,0.513 m -19.87,19.101 -0.019,0.006 c -0.135,0.297 -0.397,0.403 -0.699,0.493 -0.23,0.068 -0.462,0.13 -0.684,0.152 l -0.363,-1.223 0.783,-0.231 c 0.105,-0.032 0.21,-0.063 0.3,-0.047 l 0.021,-0.006 -0.207,-0.697 -0.02,0.006 c -0.049,0.222 -0.327,0.297 -0.531,0.358 l -0.487,0.144 -0.461,-1.559 0.812,-0.326 c 0.422,-0.169 0.916,-0.165 1.331,0.027 l 0.02,-0.005 -0.551,-0.775 -2.742,0.813 0.005,0.02 c 0.371,0.019 0.475,0.517 0.563,0.813 l 0.735,2.48 c 0.09,0.302 0.271,0.771 -0.028,0.995 l 0.006,0.02 2.105,-0.624 c 0.112,-0.033 0.22,-0.079 0.319,-0.059 l 0.02,-0.005 -0.228,-0.77 z m -5.077,-23.06 c -1.328,-1.169 -3.093,-1.893 -4.457,-2.973 -0.164,0.408 -0.144,1.382 -0.083,1.852 0.568,4.232 3.331,7.301 3.245,11.817 0.062,1.868 -0.325,3.56 -1.122,5.085 0.137,0.104 0.211,-0.091 0.298,-0.122 1.469,-2.379 3.114,-4.683 3.94,-7.323 0.929,-2.834 0.52,-6.276 -1.821,-8.336 m -3.809,20.858 -0.007,0.453 c -0.295,-0.403 -0.856,-0.576 -1.336,-0.583 -0.453,-0.006 -0.934,0.131 -1.248,0.462 -0.37,0.392 -0.363,0.852 -0.37,1.346 l -0.028,1.831 c -0.004,0.309 0.037,0.81 -0.316,0.935 l 0,0.021 1.304,0.02 0,-0.021 c -0.341,-0.136 -0.293,-0.636 -0.288,-0.945 l 0.028,-1.831 c 0.013,-0.912 0.403,-1.332 1.11,-1.321 0.384,0.006 0.773,0.169 0.994,0.495 0.148,0.208 0.139,0.38 0.134,0.626 l -0.03,2.065 c -0.004,0.308 0.029,0.81 -0.316,0.935 l 0,0.021 1.303,0.019 0.007,-0.02 c -0.348,-0.136 -0.299,-0.636 -0.295,-0.951 l 0.039,-2.586 c 0.005,-0.309 -0.029,-0.81 0.323,-0.936 l 0,-0.02 -1.008,-0.015 z m -4.6,3.518 -0.02,-0.004 c -0.131,0.22 -0.407,0.205 -0.629,0.164 l -0.608,-0.111 0.563,-3.077 c 0.07,-0.385 0.112,-0.649 0.507,-0.793 l 0.004,-0.02 -1.336,-0.244 -0.004,0.02 c 0.314,0.19 0.184,0.675 0.128,0.979 l -0.55,3.009 -0.594,-0.108 c -0.29,-0.053 -0.58,-0.183 -0.753,-0.417 l -0.021,-0.004 0.089,0.846 0.021,0.004 c 0.087,-0.019 0.175,-0.003 0.265,0 l 0.169,0.031 2.517,0.459 c 0.115,0.022 0.221,0.048 0.301,0.105 l 0.021,0.003 -0.07,-0.842 z m -4.367,-4.856 -0.006,0.019 c 0.292,0.219 0.105,0.693 0.015,0.988 l -0.755,2.474 c -0.092,0.301 -0.192,0.795 -0.565,0.817 l -0.006,0.02 1.247,0.38 0.006,-0.02 c -0.29,-0.224 -0.103,-0.698 -0.013,-0.993 l 0.755,-2.474 c 0.09,-0.296 0.196,-0.786 0.563,-0.811 l 0.006,-0.019 -1.247,-0.381 z m -2.605,-1.022 -0.008,0.02 c 0.265,0.254 0.031,0.698 -0.09,0.983 l -1.195,2.816 -0.555,-0.235 c -0.272,-0.115 -0.526,-0.305 -0.645,-0.571 l -0.018,-0.009 -0.098,0.846 0.019,0.008 c 0.089,0 0.171,0.035 0.258,0.057 l 0.158,0.068 2.356,0.998 c 0.107,0.046 0.206,0.095 0.272,0.168 l 0.018,0.008 0.117,-0.837 -0.019,-0.008 c -0.176,0.186 -0.442,0.111 -0.65,0.022 l -0.568,-0.241 1.222,-2.88 c 0.152,-0.36 0.25,-0.609 0.668,-0.663 l 0.008,-0.019 -1.25,-0.531 z m -0.559,-24.964 c -0.27,-0.093 -0.237,-0.456 -0.237,-0.676 l 0,-1.847 c 0,-0.221 -0.033,-0.578 0.237,-0.671 l 0,-0.015 -1.024,0 0,0.015 c 0.269,0.088 0.237,0.45 0.237,0.671 l 0,1.847 c 0,0.225 0.037,0.583 -0.237,0.676 l 0,0.015 1.024,0 0,-0.015 z m -2.413,23.233 c -0.358,-0.217 -0.747,-0.383 -1.156,-0.464 l -0.616,0.628 c 0.527,-0.087 1.122,0.019 1.579,0.297 0.333,0.204 0.715,0.711 0.465,1.12 -0.557,0.914 -2.472,-0.48 -3.229,0.761 -0.451,0.738 0.133,1.481 0.847,1.917 0.293,0.179 0.616,0.32 0.951,0.404 l 0.404,-0.662 c -0.371,0.095 -0.816,0.008 -1.145,-0.192 -0.333,-0.204 -0.676,-0.591 -0.429,-0.995 0.489,-0.802 2.496,0.44 3.158,-0.643 0.382,-0.627 0.084,-1.613 -0.829,-2.171 m -0.367,-25.937 c -0.491,-0.354 -1.041,-0.53 -1.655,-0.603 l 0.269,0.303 c 0.863,0.162 1.649,0.877 1.649,1.7 0,0.5 -0.306,1.049 -0.926,1.049 -0.464,0 -0.788,-0.328 -0.788,-0.739 0,-0.447 0.324,-0.799 0.82,-0.799 0.199,0 0.398,0.063 0.571,0.156 l -0.366,-0.407 c -0.14,-0.049 -0.286,-0.073 -0.437,-0.073 -0.63,0 -1.132,0.427 -1.132,1.02 0,0.715 0.641,1.19 1.402,1.19 0.846,0 1.401,-0.603 1.401,-1.342 0,-0.564 -0.329,-1.107 -0.808,-1.455 m -2.671,24.614 -3.734,0.703 1.744,-2.001 c 0.252,-0.29 0.427,-0.501 0.841,-0.423 l 0.013,-0.015 -0.915,-0.798 -0.013,0.016 c 0.134,0.399 -0.047,0.606 -0.298,0.896 l -1.799,2.064 c -0.252,0.289 -0.432,0.496 -0.836,0.417 l -0.014,0.015 0.756,0.658 0.004,-0.005 c 0.075,-0.044 0.118,-0.052 0.19,-0.062 l 0.163,-0.04 3.975,-0.74 -1.708,1.96 c -0.252,0.289 -0.427,0.501 -0.837,0.418 l -0.013,0.015 0.91,0.793 0.014,-0.015 c -0.135,-0.39 0.046,-0.597 0.298,-0.887 l 2.528,-2.902 c -0.475,-0.196 -0.785,-0.164 -1.269,-0.067 m -0.267,-43.834 c -0.926,-1.075 -2.299,-1.135 -3.365,-0.217 -0.317,0.273 -0.59,0.607 -0.834,0.944 l 0.515,0.598 c 0.129,-0.429 0.363,-0.829 0.706,-1.124 0.718,-0.618 1.669,-0.523 2.318,0.231 0.658,0.764 0.725,1.893 -0.076,2.582 -0.39,0.337 -0.901,0.532 -1.39,0.627 l -0.015,0.013 0.784,0.374 c 0.343,-0.095 0.65,-0.287 0.92,-0.519 1.226,-1.056 1.395,-2.397 0.437,-3.509 m -6.487,3.183 -0.016,-0.013 -0.675,0.848 1.865,3.308 c 0.208,0.367 0.431,0.702 0.344,1.132 l 0.015,0.013 0.876,-1.1 -0.016,-0.013 c -0.327,0.169 -0.352,0.079 -0.612,-0.364 l -0.527,-0.893 1.077,-1.352 0.979,0.323 c 0.391,0.127 0.576,0.212 0.467,0.547 l 0.016,0.013 0.786,-0.987 -0.016,-0.013 c -0.403,0.187 -0.776,0.039 -1.176,-0.087 l -2.952,-0.885 c -0.253,-0.078 -0.559,-0.155 -0.435,-0.477 m -2.54,3.464 -0.018,-0.009 -0.638,1.144 0.018,0.01 c 0.284,-0.242 0.704,0.047 0.974,0.198 l 2.613,1.456 -0.401,0.844 c -0.203,0.421 -0.538,0.698 -0.956,0.858 l -0.011,0.017 0.971,0.133 1.373,-2.463 -0.018,-0.01 c -0.278,0.245 -0.702,-0.037 -0.971,-0.188 l -2.26,-1.259 c -0.275,-0.154 -0.733,-0.361 -0.676,-0.731 m -1.857,3.529 -0.019,-0.008 -0.515,1.197 0.019,0.007 c 0.255,-0.263 0.705,-0.024 0.989,0.098 l 2.375,1.021 c 0.284,0.123 0.761,0.282 0.745,0.65 l 0.019,0.007 0.514,-1.197 -0.018,-0.008 c -0.249,0.267 -0.7,0.028 -0.983,-0.094 l -2.376,-1.022 c -0.29,-0.125 -0.769,-0.278 -0.75,-0.651 m -1.16,2.89 -0.019,-0.006 -0.62,2.106 c -0.032,0.112 -0.052,0.229 -0.123,0.3 l -0.006,0.02 0.764,0.224 0.005,-0.02 c -0.17,-0.272 -0.117,-0.549 -0.028,-0.852 0.068,-0.23 0.142,-0.459 0.243,-0.657 l 1.224,0.359 -0.232,0.79 c -0.029,0.099 -0.06,0.204 -0.122,0.272 l -0.006,0.02 0.697,0.204 0.006,-0.019 c -0.166,-0.164 -0.072,-0.437 -0.012,-0.641 l 0.143,-0.486 1.192,0.35 c 0.296,0.086 0.792,0.175 0.82,0.541 l 0.02,0.006 0.366,-1.244 -0.02,-0.006 c -0.217,0.301 -0.692,0.118 -0.989,0.032 l -2.482,-0.73 c -0.302,-0.089 -0.794,-0.191 -0.821,-0.563 m 0.522,8.586 c 1.388,0.182 2.545,-0.836 2.722,-2.189 0.176,-1.347 -0.64,-2.609 -2.034,-2.791 -1.293,-0.17 -2.521,0.811 -2.674,2.243 -0.194,1.428 0.762,2.577 1.986,2.737 m -2.146,1.132 -0.02,0.002 0.075,1.63 c 0.043,0.919 0.545,1.397 1.169,1.369 0.603,-0.029 1.051,-0.578 1.155,-1.146 l 1.287,0.93 c 0.361,0.265 0.727,0.667 0.991,1.039 -0.131,0.376 -0.393,0.437 -0.759,0.52 l -2.669,0.605 c -0.375,0.085 -0.642,0.146 -0.922,-0.157 l -0.02,0.005 0.221,0.976 0.007,-0.001 c 0.086,0.009 0.126,0.028 0.19,0.062 l 0.155,0.064 3.646,1.748 -2.536,0.575 c -0.375,0.085 -0.641,0.152 -0.922,-0.158 l -0.02,0.006 0.267,1.176 0.02,-0.004 c 0.122,-0.393 0.389,-0.454 0.764,-0.538 L -55.016,8.38 C -55.284,7.942 -55.552,7.785 -56,7.576 l -3.429,-1.635 2.588,-0.587 c 0.375,-0.085 0.641,-0.152 0.928,0.156 L -55.892,5.505 -56.16,4.32 -56.174,4.324 -56.201,3.748 C -56.218,3.384 -56.317,3.162 -56.58,2.969 l -1.074,-0.788 -0.995,-0.587 c -0.057,0.553 -0.281,1.202 -0.925,1.231 -0.494,0.023 -0.801,-0.388 -0.801,-0.849 -10e-4,-0.157 0.012,-0.309 0.033,-0.468 l 3.069,-0.142 c 0.316,-0.014 0.814,-0.078 0.953,0.265 l 0.021,-0.001 -0.06,-1.308 -0.021,0.001 c -0.107,0.355 -0.616,0.33 -0.925,0.345 l -2.583,0.119 c -0.315,0.014 -0.813,0.086 -0.96,-0.259 m 2.28,11.766 0.019,-0.008 c -10e-4,-0.366 0.488,-0.51 0.776,-0.62 l 2.416,-0.923 c 0.288,-0.111 0.742,-0.328 0.986,-0.054 l 0.019,-0.008 -0.466,-1.217 -0.018,0.007 c 0.007,0.365 -0.483,0.508 -0.771,0.618 l -2.416,0.924 c -0.294,0.112 -0.745,0.336 -0.991,0.056 l -0.02,0.008 0.466,1.217 z m 1.79,3.661 3.769,-0.466 c 0.418,-0.053 0.814,-0.132 1.178,0.113 l 0.018,-0.01 -0.685,-1.228 -0.018,0.01 c 0.032,0.367 -0.06,0.356 -0.57,0.427 l -1.025,0.148 -0.841,-1.51 0.671,-0.783 c 0.266,-0.313 0.416,-0.452 0.684,-0.224 l 0.018,-0.01 -0.614,-1.103 -0.018,0.011 c 0.019,0.444 -0.259,0.733 -0.527,1.055 l -1.942,2.393 c -0.169,0.204 -0.357,0.457 -0.607,0.22 l -0.019,0.01 0.528,0.947 z m 5.919,-16.963 0,-1.847 c 0,-0.221 -0.033,-0.578 0.237,-0.671 l 0,-0.015 -1.025,0 0,0.015 c 0.27,0.088 0.238,0.45 0.238,0.671 l 0,1.847 c 0,0.225 0.038,0.583 -0.238,0.676 l 0,0.015 1.025,0 0,-0.015 c -0.27,-0.093 -0.237,-0.456 -0.237,-0.676 m 4.122,-1.671 c 0,-0.558 -0.625,-0.94 -1.45,-0.94 -0.771,0 -1.428,0.342 -1.428,0.911 0,0.455 0.388,0.705 0.808,0.862 -0.372,0.137 -0.679,0.382 -0.679,0.774 0,0.5 0.539,0.833 1.283,0.833 0.55,0 1.261,-0.221 1.261,-0.813 0,-0.353 -0.345,-0.584 -0.657,-0.725 0.452,-0.196 0.862,-0.383 0.862,-0.902 m -6.042,24.127 0.016,-0.013 c -0.128,-0.344 0.282,-0.647 0.514,-0.85 l 1.946,-1.703 c 0.233,-0.203 0.583,-0.564 0.907,-0.392 l 0.016,-0.013 -0.858,-0.981 -0.016,0.013 c 0.133,0.34 -0.277,0.643 -0.509,0.846 l -1.946,1.703 c -0.238,0.207 -0.584,0.573 -0.912,0.396 l -0.015,0.014 0.857,0.98 z m 25.71,9.996 0.02,-0.002 c 0.077,-0.046 0.165,-0.059 0.252,-0.085 l 0.169,-0.026 2.532,-0.37 c 0.115,-0.016 0.225,-0.025 0.319,0.003 l 0.021,-0.003 -0.336,-0.776 -0.02,0.003 c -0.053,0.25 -0.32,0.324 -0.544,0.357 l -0.612,0.089 -0.452,-3.096 c -0.056,-0.387 -0.101,-0.65 0.228,-0.913 l -0.004,-0.02 -1.344,0.196 0.004,0.02 c 0.358,0.08 0.39,0.581 0.434,0.887 l 0.442,3.027 -0.597,0.088 c -0.291,0.042 -0.608,0.012 -0.847,-0.154 l -0.021,0.003 0.356,0.772 z m -3.053,2.061 c -18.115,0 -32.801,-14.685 -32.801,-32.799 0,-14.15 8.922,-26.182 21.476,-30.783 l 0.075,4.341 0.302,5.061 c 0.389,4.525 0.912,8.981 1.993,13.195 0.369,1.156 0.607,2.595 1.933,3.105 1.789,0.376 3.733,0.052 5.613,0.106 0.006,0.949 0.287,2.202 -0.095,3.052 l -0.41,0.374 -8.725,3.437 c -0.153,0.099 -0.335,0.209 -0.322,0.421 l 0.002,0.143 10.882,0 c -0.16,0.199 -0.422,0.537 -0.571,0.781 l -1.115,1.124 -3.618,3.037 c -1.489,1.246 -2.167,2.914 -1.823,4.845 0.654,3.592 4.287,5.892 5.556,9.221 -0.123,-0.695 -0.208,-1.207 -0.331,-1.738 -0.492,-2.674 -2.013,-3.945 -2.39,-6.679 -0.016,-0.339 -0.195,-1.615 0.102,-1.785 0.066,1.559 0.69,2.942 1.353,4.277 1.326,2.166 2.95,3.853 3.21,6.493 0.041,0.409 -0.026,1.243 -0.189,1.774 l 0.097,-0.002 c 1.733,-2.8 2.612,-6.273 1.709,-9.763 -0.602,-3.351 -2.628,-6.636 -2.197,-10.227 0.081,-0.529 0.181,-1.092 0.344,-1.358 l 11.345,0 c 0.084,-0.215 -0.037,-0.455 -0.241,-0.529 l -9.058,-3.464 c -0.323,-0.178 -0.571,-0.503 -0.635,-0.851 0.045,-0.175 -0.122,-0.336 0.031,-0.466 0.409,0.149 0.981,0.206 1.324,-0.12 0.071,0.183 -0.022,0.407 0.011,0.63 0.036,0.396 0.352,0.72 0.712,0.85 0.428,0.109 1.062,0.31 1.423,-0.093 0.351,-0.394 0.389,-0.937 0.673,-1.339 -0.021,0.456 -0.002,0.988 0.457,1.222 0.46,0.186 1.151,0.426 1.58,0.021 0.833,-1.641 1.388,-3.862 1.967,-5.596 0.329,0.785 1.025,1.137 1.72,0.999 0.338,-0.055 0.734,-0.149 0.853,-0.509 -0.14,-2.525 0.381,-4.839 0.756,-7.19 0.104,-1.261 0.942,-2.631 0.165,-3.838 -0.705,-1.063 -1.709,-1.937 -2.511,-2.959 -0.189,-0.249 -0.156,-0.618 -0.133,-0.928 l 1.901,-8.676 c 11.983,4.883 20.4,16.644 20.4,30.384 0,18.114 -14.686,32.799 -32.8,32.799 m 25.964,-45.343 c -0.838,0.471 -2.032,0.362 -2.559,-0.577 -0.511,-0.909 -0.174,-1.862 0.717,-2.363 0.873,-0.491 2.029,-0.408 2.561,0.537 0.521,0.926 0.184,1.895 -0.719,2.403 m 2.724,9.712 c -0.949,0.151 -2.03,-0.366 -2.199,-1.431 -0.161,-1.03 0.487,-1.806 1.497,-1.965 0.989,-0.156 2.044,0.324 2.212,1.394 0.167,1.05 -0.487,1.841 -1.51,2.002 m -46.845,1.563 c -0.291,0 -0.663,-0.112 -0.663,-0.425 0,-0.417 0.663,-0.564 1.013,-0.666 0.222,0.107 0.443,0.312 0.443,0.557 0,0.309 -0.275,0.534 -0.793,0.534 m 33.425,27.651 c -0.922,0.529 -1.893,0.201 -2.409,-0.697 -0.478,-0.833 -0.381,-2.027 0.553,-2.564 0.904,-0.519 1.861,-0.19 2.369,0.696 0.499,0.869 0.428,2.025 -0.513,2.565 M -49.071,-2.64 c 0,-0.402 0.361,-0.657 0.922,-0.657 0.382,0 0.867,0.157 0.867,0.559 0,0.491 -0.792,0.627 -1.196,0.74 -0.28,-0.103 -0.593,-0.348 -0.593,-0.642 m -5.58,17.662 -1.838,0.254 1.18,-1.435 0.658,1.181 z m -3.526,-19.84 c 0.952,0.125 1.843,0.927 1.703,1.994 -0.135,1.034 -0.977,1.595 -1.99,1.463 -0.993,-0.131 -1.869,-0.888 -1.728,-1.964 0.138,-1.054 0.988,-1.627 2.015,-1.493 m 4.558,-13.411 1.775,0.546 -0.842,1.056 -0.933,-1.602 z"
               inkscape:connector-curvature="0" />
          </g>
          <g
             transform="translate(297.6361,715.1735)"
             id="g3065">
            <path
               id="path3067"
               style="fill:#f37421;fill-opacity:1;fill-rule:nonzero;stroke:none"
               d="M 0,0 C -0.51,-0.572 0.061,-1.725 0.163,-2.255 L 1.35,-7.806 C 1.386,-7.99 1.46,-8.157 1.458,-8.341 1.05,-8.412 0.659,-8.539 0.251,-8.63 0.15,-8.337 0.597,-8.238 0.794,-8.077 l 0.089,0.114 c -0.422,2.439 -0.854,4.294 -1.13,5.51 -0.102,0.449 -0.488,2.352 -0.814,2.699 L 0,0 z"
               inkscape:connector-curvature="0" />
          </g>
          <g
             transform="translate(296.4701,705.2709)"
             id="g3069">
            <path
               id="path3071"
               style="fill:#e96d1f;fill-opacity:1;fill-rule:nonzero;stroke:none"
               d="M 0,0 C -0.675,0.69 -1.487,1.362 -2.537,1.138 -3.283,1.094 -3.985,0.844 -4.749,0.916 c -0.295,0.276 -0.414,0.685 -0.31,1.099 0.476,0.65 1.329,0.674 2.012,0.944 1.034,0.417 2.149,-0.048 2.891,-0.816 L 0.231,1.574 C 0.329,1.06 0.355,0.401 0,0 m 0.121,-1.959 c -0.112,-0.357 -0.217,-0.762 -0.502,-1.008 -0.46,1.363 -1.838,1.804 -3.083,2.03 -0.377,0.064 -0.765,0.032 -1.05,-0.215 -0.373,0.268 -0.373,0.792 -0.279,1.217 0.061,0.153 0.236,0.228 0.382,0.264 0.923,0.167 1.904,0.335 2.881,0.21 0.433,-0.142 0.785,-0.517 1.099,-0.861 0.437,-0.444 0.737,-1.001 0.552,-1.637 m -0.566,-3.564 c -0.054,-0.338 -0.166,-0.647 -0.461,-0.874 -0.411,-0.273 -0.898,-0.439 -1.355,-0.519 -0.309,1.149 0.221,2.661 -0.819,3.531 -0.447,0.512 -1.645,0.687 -1.251,1.581 0.07,0.164 0.208,0.297 0.374,0.381 0.852,-0.014 1.613,-0.231 2.294,-0.66 0.757,-1.011 1.649,-2.081 1.218,-3.44 M -2.243,-12.8 c -1.021,-0.041 -4.798,-0.021 -4.798,-0.021 l 0.959,16.416 c 0.388,0 0.735,0.02 0.878,0.122 C -5.224,3.37 -5.061,3.145 -4.857,2.92 -6.184,2.165 -5.49,0.879 -5.081,0.532 c -0.47,-1.205 0.04,-1.736 0.408,-2.062 -0.245,-0.777 -0.114,-1.246 1.103,-1.92 0.959,-0.53 0.816,-2.246 0.837,-2.837 0.02,-0.592 0.49,-6.513 0.49,-6.513 M -4.577,4.129 C -4.149,4.76 -3.382,4.863 -2.73,5.064 -1.992,5.158 -0.913,5.42 -0.481,4.608 -0.297,4.083 0.004,3.516 -0.23,2.91 -0.911,3.29 -1.6,3.756 -2.476,3.549 -3.117,3.425 -3.758,3.31 -4.362,3.097 -4.649,3.315 -4.68,3.771 -4.577,4.129 M 0.79,1.4 C 0.768,1.836 0.376,2.114 0.199,2.486 0.522,3.293 0.209,4.2 -0.107,4.932 c -0.13,0.322 -0.485,0.579 -0.772,0.71 -0.286,0.98 -1.16,2.934 -1.058,3.812 L -2.57,8.944 C -2.121,8.76 -1.843,7.712 -1.761,7.303 L -1.343,5.699 -2.691,5.606 c 0.007,0.387 0.064,0.89 -0.378,1.092 l -0.115,0.05 -0.138,1.543 c -0.041,0.326 0.078,0.551 0.262,0.632 l 0.082,1.041 C -3.387,9.638 -3.552,8.997 -3.611,8.739 -3.71,8.317 -3.652,7.433 -3.611,6.698 -4.387,6.453 -6.225,6.943 -6.225,6.943 l 0,-0.245 C -5.98,6.616 -5.192,6.459 -4.743,6.378 -4.27,6.292 -3.645,6.456 -3.264,6.12 -3.19,5.886 -3.215,5.586 -3.354,5.385 -4.026,5.125 -4.786,4.887 -5.206,4.178 -6.73,3.982 -8.385,4.059 -9.881,4.308 -9.806,3.61 -9.018,3.809 -8.537,3.655 l 0.067,-0.04 c 0.056,-1.28 0.321,-2.737 -0.213,-3.909 -0.741,-1.382 -2.441,-1.14 -3.827,-1.183 l -0.006,-0.348 c 1.15,-0.098 2.361,-0.138 3.423,0.22 0.584,0.203 1.089,0.814 1.187,1.414 0.177,1.275 -0.034,2.509 -0.1,3.749 0.486,0.088 1.009,0.079 1.532,0.06 l 0.047,-0.067 -0.265,-4.645 -0.396,-6.57 c -1.155,-0.115 -2.531,-0.169 -3.499,0.41 -1.504,0.937 -1.53,2.758 -1.483,4.375 l -0.513,0.028 -0.161,-1.508 -0.365,-4.779 -0.109,-2.37 c -0.013,-0.184 0.051,-0.379 0.264,-0.373 0.085,2.071 0.352,4.062 0.504,6.102 l 0.069,0.067 c 0.234,-0.507 0.418,-1.025 0.788,-1.476 1.102,-1.25 2.907,-1.01 4.429,-0.939 l 0.067,-0.069 -0.268,-4.79 1.204,-0.016 0.258,-0.009 -0.069,-7.873 c 1.132,-0.05 2.45,-0.004 3.652,0.052 0.195,0.074 0.035,0.319 0.057,0.483 l -0.429,5.935 -0.072,1.404 0.883,0.033 -0.391,5.413 0.088,0.096 c 0.438,0.098 0.848,0.265 1.267,0.413 1.101,0.397 0.988,1.707 1.045,2.704 -0.538,0.803 0.421,1.425 0.484,2.199 C 0.884,-1.536 0.575,-0.92 0.313,-0.403 0.815,0.054 0.731,0.791 0.79,1.4"
               inkscape:connector-curvature="0" />
          </g>
          <g
             transform="translate(301.4312,707.5095)"
             id="g3073">
            <path
               id="path3075"
               style="fill:#f37421;fill-opacity:1;fill-rule:nonzero;stroke:none"
               d="m 0,0 c -0.043,0.53 -0.344,1.417 -0.1,2.152 l -0.183,0.632 c -0.205,-0.367 -0.35,-1.025 -0.309,-1.515 0.043,-1.79 0.276,-2.698 0.236,-4.382 l -0.122,-0.298 c -1.246,-0.947 -3.084,-1.37 -3.674,-3.006 -0.285,-1.885 0.206,-3.685 0.651,-5.398 l 0.369,0.062 c -0.334,1.381 -0.599,2.849 -0.485,4.358 0.075,2.129 2.469,2.765 3.881,3.767 C 0.315,-2.409 0.095,-1.193 0,0"
               inkscape:connector-curvature="0" />
          </g>
        </g>
      </g>
    </g>
  </g>
</svg>
