<svg xmlns="http://www.w3.org/2000/svg" xmlns:xlink="http://www.w3.org/1999/xlink" version="1.1" x="0px" y="0px" viewBox="0 0 100 125" enable-background="new 0 0 100 100" xml:space="preserve"><path d="M53.872,95c0,0,0.132-0.446,0.328-1.291c0.202-0.843,0.451-2.094,0.649-3.687c0.092-0.796,0.158-1.681,0.152-2.635  c-0.015-0.951-0.069-1.981-0.335-3.007c-0.125-0.514-0.313-1.019-0.555-1.496c-0.264-0.46-0.556-0.919-0.967-1.262  c-0.79-0.709-1.887-1.11-3.138-1.145c-0.313,0.002-0.621-0.014-0.99-0.001c-0.35,0.011-0.715,0.014-1.095,0.01  c-0.751-0.003-1.498-0.031-2.266-0.073c-1.531-0.088-3.108-0.279-4.721-0.554c-3.213-0.574-6.636-1.461-9.867-3.358  c-1.605-0.942-3.158-2.18-4.383-3.803l-0.451-0.615c-0.14-0.214-0.262-0.441-0.394-0.663c-0.123-0.227-0.271-0.439-0.37-0.68  l-0.31-0.716l-0.153-0.36l-0.111-0.374l-0.215-0.754c-0.133-0.504-0.183-1.023-0.272-1.537c-0.231-2.074,0.083-4.13,0.648-6.032  c0.115-0.49,0.306-0.943,0.469-1.411c0.166-0.465,0.333-0.933,0.544-1.371l0.604-1.338l0.683-1.284l0.347-0.64l0.351-0.6  l0.702-1.198c0.467-0.799,0.935-1.597,1.401-2.394c0.933-1.592,1.861-3.179,2.783-4.752c1.827-3.157,3.706-6.217,5.481-9.204  c1.773-2.987,3.537-5.847,5.2-8.563c1.654-2.722,3.252-5.276,4.73-7.631c1.467-2.362,2.841-4.51,4.061-6.413  c1.21-1.909,2.293-3.556,3.18-4.917c0.882-1.363,1.6-2.419,2.078-3.145C58.158,5.385,58.418,5,58.418,5s-0.205,0.417-0.589,1.198  c-0.392,0.777-0.95,1.925-1.692,3.369c-0.738,1.446-1.627,3.206-2.679,5.206c-1.043,2.005-2.222,4.267-3.539,6.716  c-1.306,2.455-2.724,5.112-4.261,7.902c-1.526,2.796-3.127,5.75-4.834,8.775c-1.706,3.027-3.423,6.18-5.249,9.337  c-0.906,1.583-1.819,3.179-2.735,4.781c-0.458,0.801-0.917,1.603-1.377,2.406l-0.69,1.206l-0.344,0.603l-0.313,0.584l-0.635,1.162  l-0.549,1.188c-0.197,0.393-0.342,0.797-0.491,1.2c-0.145,0.404-0.321,0.803-0.417,1.213c-0.503,1.619-0.754,3.276-0.592,4.84  c0.162,1.562,0.714,3.015,1.608,4.277c0.892,1.265,2.112,2.327,3.473,3.179c2.74,1.698,5.867,2.737,8.876,3.419  c1.511,0.343,3.006,0.578,4.459,0.764c0.724,0.089,1.447,0.167,2.141,0.217c0.342,0.028,0.693,0.05,1.052,0.063  c0.34,0.011,0.733,0.051,1.114,0.079c1.511,0.144,3.058,0.771,4.058,1.867c0.519,0.528,0.852,1.16,1.125,1.765  c0.248,0.617,0.411,1.23,0.502,1.825c0.193,1.189,0.166,2.291,0.067,3.289c-0.1,0.998-0.265,1.896-0.445,2.697  c-0.362,1.603-0.792,2.813-1.09,3.633C54.069,94.579,53.872,95,53.872,95z"/><path d="M38.609,71.542c-1.085,0.871-0.593,1.997,0.784,2.196l2.493,0.362c1.376,0.201,2.867-0.809,4.197-1.215  c1.834-0.563,5.604-0.806,13.323,0.336c1.376,0.203,1.496-0.146,0.242-0.75C47.607,66.688,41.328,69.358,38.609,71.542z"/><path d="M62.178,76.945c0,0,0.331-0.181,0.911-0.496c0.286-0.162,0.651-0.339,1.036-0.575c0.39-0.233,0.831-0.479,1.3-0.776  c0.462-0.308,0.981-0.605,1.482-0.987c0.254-0.183,0.515-0.37,0.781-0.563c0.254-0.204,0.515-0.412,0.778-0.623  c0.51-0.438,1.019-0.902,1.489-1.398c0.479-0.49,0.899-1.029,1.273-1.578c0.35-0.562,0.643-1.146,0.797-1.737  c0.104-0.288,0.132-0.587,0.207-0.864c0.027-0.287,0.096-0.558,0.112-0.832c0.07-0.541,0.111-1.07,0.111-1.599  c-0.003-0.524-0.031-1.046-0.101-1.539c-0.07-0.491-0.144-0.965-0.24-1.388c-0.096-0.421-0.178-0.809-0.265-1.126  c-0.176-0.655-0.276-1.029-0.276-1.029l0.231-0.213c0,0,0.401,0.16,0.978,0.604c0.577,0.438,1.334,1.177,1.958,2.311  c0.318,0.562,0.577,1.232,0.748,1.981c0.182,0.747,0.234,1.59,0.107,2.438c-0.118,0.851-0.434,1.696-0.873,2.451  c-0.418,0.77-0.958,1.446-1.503,2.084c-0.563,0.62-1.162,1.187-1.79,1.671c-0.618,0.501-1.275,0.905-1.909,1.282  c-0.321,0.177-0.638,0.351-0.947,0.521c-0.313,0.16-0.626,0.3-0.927,0.44c-0.598,0.293-1.191,0.495-1.721,0.717  c-0.536,0.209-1.047,0.356-1.485,0.509c-0.44,0.156-0.827,0.247-1.146,0.336c-0.637,0.173-1.001,0.271-1.001,0.271L62.178,76.945z"/><text x="0" y="115" fill="#000000" font-size="5px" font-weight="bold" font-family="'Helvetica Neue', Helvetica, Arial-Unicode, Arial, Sans-serif">Created by David Courey</text><text x="0" y="120" fill="#000000" font-size="5px" font-weight="bold" font-family="'Helvetica Neue', Helvetica, Arial-Unicode, Arial, Sans-serif">from the Noun Project</text></svg>